<?xml version="1.0" encoding="utf-8"?>
<!-- Generator: Adobe Illustrator 23.0.4, SVG Export Plug-In . SVG Version: 6.00 Build 0)  -->
<svg version="1.1" id="Ebene_1" xmlns="http://www.w3.org/2000/svg" xmlns:xlink="http://www.w3.org/1999/xlink" x="0px" y="0px"
	 viewBox="0 0 500 500" style="enable-background:new 0 0 500 500;" xml:space="preserve" width="200px" height="200px">
<style type="text/css">
	.st0{fill:none;}
	.st1{fill:url(#SVGID_1_);}
	.st2{fill:url(#SVGID_2_);}
	.st3{fill:url(#SVGID_3_);}
	.st4{fill:url(#SVGID_4_);}
	.st5{fill:url(#SVGID_5_);}
	.st6{opacity:0.1;}
	.st7{fill:url(#SVGID_6_);}
	.st8{fill:url(#SVGID_7_);}
	.st9{fill:url(#SVGID_8_);}
	.st10{fill:url(#SVGID_9_);}
	.st11{fill:url(#SVGID_10_);}
	.st12{fill:url(#SVGID_11_);}
	.st13{fill:url(#SVGID_12_);}
	.st14{fill:url(#SVGID_13_);}
	.st15{fill:url(#SVGID_14_);}
	.st16{fill:url(#SVGID_15_);}
	.st17{fill:url(#SVGID_16_);}
	.st18{fill:url(#SVGID_17_);}
	.st19{fill:url(#SVGID_18_);}
	.st20{fill:url(#SVGID_19_);}
	.st21{fill:url(#SVGID_20_);}
	.st22{fill:url(#SVGID_21_);}
	.st23{fill:url(#SVGID_22_);}
	.st24{fill:url(#SVGID_23_);}
	.st25{fill:url(#SVGID_24_);}
	.st26{fill:url(#SVGID_25_);}
	.st27{fill:url(#SVGID_26_);}
	.st28{fill:url(#SVGID_27_);}
	.st29{fill:url(#SVGID_28_);}
	.st30{fill:url(#SVGID_29_);}
	.st31{fill:url(#SVGID_30_);}
	.st32{fill:url(#SVGID_31_);}
	.st33{fill:url(#SVGID_32_);}
	.st34{fill:url(#SVGID_33_);}
	.st35{fill:url(#SVGID_34_);}
	.st36{fill:url(#SVGID_35_);}
	.st37{fill:url(#SVGID_36_);}
	.st38{fill:url(#SVGID_37_);}
	.st39{fill:url(#SVGID_38_);}
	.st40{fill:url(#SVGID_39_);}
	.st41{fill:url(#SVGID_40_);}
</style>
<g>
	<g>
		<path class="st0" d="M250,414.1c62.4,0,113.2-50.8,113.2-113.2S312.4,187.6,250,187.6c-13.7,0-26.8,2.4-38.9,6.9v212.7
			C223.2,411.7,236.3,414.1,250,414.1z"/>
		<path class="st0" d="M136.8,300.8c0,1.8,0,3.7,0.1,5.5v-10.9C136.8,297.2,136.8,299,136.8,300.8z"/>
		<linearGradient id="SVGID_1_" gradientUnits="userSpaceOnUse" x1="71.8249" y1="211.1676" x2="428.1751" y2="211.1676">
			<stop  offset="0" style="stop-color:#FF6896"/>
			<stop  offset="0.1665" style="stop-color:#E868A4"/>
			<stop  offset="0.5167" style="stop-color:#AC68C7"/>
			<stop  offset="0.9979" style="stop-color:#5169FC"/>
		</linearGradient>
		<path class="st1" d="M211.1,194.5V127c-27.7,6.2-53,18.9-74.2,36.3v132.1C139.1,249,169.4,209.8,211.1,194.5z"/>
		<linearGradient id="SVGID_2_" gradientUnits="userSpaceOnUse" x1="250" y1="471.875" x2="250" y2="130.4781">
			<stop  offset="1.239782e-02" style="stop-color:#FF775B"/>
			<stop  offset="0.1831" style="stop-color:#FF8B64"/>
			<stop  offset="0.7356" style="stop-color:#FFC67E"/>
			<stop  offset="1" style="stop-color:#FFDD88"/>
		</linearGradient>
		<path class="st2" d="M250,122.7c-13.4,0-26.4,1.5-38.9,4.3c-27.7,6.2-53,18.9-74.2,36.3C97.2,196,71.8,245.5,71.8,300.8
			c0,55.3,25.4,104.9,65.1,137.6V306.3c-0.1-1.8-0.1-3.6-0.1-5.5c0-1.8,0-3.7,0.1-5.5c2.2-46.4,32.5-85.6,74.2-100.9
			c12.1-4.5,25.2-6.9,38.9-6.9c62.4,0,113.2,50.8,113.2,113.2S312.4,414.1,250,414.1c-13.7,0-26.8-2.4-38.9-6.9v39.3
			c0,9.9-3.9,18.9-10.2,25.6c15.6,4.5,32.1,6.9,49.1,6.9c98.2,0,178.2-79.9,178.2-178.2C428.2,202.6,348.2,122.7,250,122.7z"/>
		<linearGradient id="SVGID_3_" gradientUnits="userSpaceOnUse" x1="71.8249" y1="389.2176" x2="428.1751" y2="389.2176">
			<stop  offset="0" style="stop-color:#FF6896"/>
			<stop  offset="0.1665" style="stop-color:#E868A4"/>
			<stop  offset="0.5167" style="stop-color:#AC68C7"/>
			<stop  offset="0.9979" style="stop-color:#5169FC"/>
		</linearGradient>
		<path class="st3" d="M211.1,407.2c-41.7-15.3-72-54.5-74.2-100.9v132.1c18.6,15.3,40.3,26.9,64,33.7c6.3-6.7,10.2-15.7,10.2-25.6
			V407.2z"/>
		<g>
			<linearGradient id="SVGID_4_" gradientUnits="userSpaceOnUse" x1="174.005" y1="505.2499" x2="174.005" y2="16.3423">
				<stop  offset="1.071236e-02" style="stop-color:#87FBE1"/>
				<stop  offset="0.322" style="stop-color:#78CFDC"/>
				<stop  offset="0.7804" style="stop-color:#6594D6"/>
				<stop  offset="1" style="stop-color:#5D7DD3"/>
			</linearGradient>
			<path class="st4" d="M211.1,53.4c0-20.5-16.6-37.1-37.1-37.1S136.9,33,136.9,53.4v109.8c21.2-17.5,46.5-30.1,74.2-36.3V53.4z"/>
			<linearGradient id="SVGID_5_" gradientUnits="userSpaceOnUse" x1="174.005" y1="473.1118" x2="174.005" y2="38.2438">
				<stop  offset="1.071236e-02" style="stop-color:#87FBE1"/>
				<stop  offset="0.322" style="stop-color:#78CFDC"/>
				<stop  offset="0.7804" style="stop-color:#6594D6"/>
				<stop  offset="1" style="stop-color:#5D7DD3"/>
			</linearGradient>
			<path class="st5" d="M136.9,295.4v10.9v132.1v8.1c0,20.5,16.6,37.1,37.1,37.1c10.6,0,20.1-4.4,26.9-11.5
				c6.3-6.7,10.2-15.7,10.2-25.6v-39.3V194.5C169.4,209.8,139.1,249,136.9,295.4z"/>
		</g>
	</g>
	<path class="st6" d="M211.1,206.8v-12.3c-41.7,15.3-72,54.5-74.2,100.9v10.9v1.4C139.1,261.3,169.4,222.1,211.1,206.8z"/>
	<path class="st6" d="M219.4,411.2v-1.3c-2.8-0.8-5.6-1.7-8.3-2.7v39.3c0,9.9-3.9,18.9-10.2,25.6c3.2,0.9,6.4,1.7,9.7,2.5
		c5.5-6.5,8.9-14.9,8.9-24.1V411.2z"/>
</g>
</svg>
